<mxfile host="app.diagrams.net" modified="2022-12-20T10:51:23.770Z" agent="5.0 (Windows)" etag="iUGQ2y6ydndZhBkAWwGs" version="20.7.4" type="github">
  <diagram name="Page-1" id="e7e014a7-5840-1c2e-5031-d8a46d1fe8dd">
    <mxGraphModel dx="2304" dy="1229" grid="0" gridSize="10" guides="1" tooltips="1" connect="1" arrows="1" fold="1" page="1" pageScale="1" pageWidth="310" pageHeight="120" background="#ffffff" math="0" shadow="0">
      <root>
        <mxCell id="0" />
        <mxCell id="1" parent="0" />
        <mxCell id="2" value="&lt;&lt;subsystem&gt;&gt; TuDu.Frontend" style="swimlane;whiteSpace=wrap;fillColor=#A8DADC;strokeColor=#457B9D;fontColor=#1D3557;rounded=0;labelBackgroundColor=none;" parent="1" vertex="1">
          <mxGeometry x="130" y="120" width="280" height="279" as="geometry" />
        </mxCell>
        <mxCell id="SUY-f_M2CVdVQqnCHsx--41" value="&lt;p style=&quot;margin:0px;margin-top:6px;text-align:center;&quot;&gt;&lt;b&gt;:LoginView&lt;/b&gt;&lt;/p&gt;" style="align=left;overflow=fill;html=1;dropTarget=0;fillColor=#A8DADC;strokeColor=#457B9D;fontColor=#1D3557;rounded=0;labelBackgroundColor=none;" parent="2" vertex="1">
          <mxGeometry x="50" y="72" width="180" height="58" as="geometry" />
        </mxCell>
        <mxCell id="SUY-f_M2CVdVQqnCHsx--42" value="" style="shape=component;jettyWidth=8;jettyHeight=4;fillColor=#A8DADC;strokeColor=#457B9D;fontColor=#1D3557;rounded=0;labelBackgroundColor=none;" parent="SUY-f_M2CVdVQqnCHsx--41" vertex="1">
          <mxGeometry x="1" width="20" height="20" relative="1" as="geometry">
            <mxPoint x="-24" y="4" as="offset" />
          </mxGeometry>
        </mxCell>
        <mxCell id="meA6yrem6NwH6y2sXX9Y-17" value="" style="whiteSpace=wrap;html=1;aspect=fixed;fillColor=#A8DADC;strokeColor=#457B9D;fontColor=#1D3557;rounded=0;labelBackgroundColor=none;" vertex="1" parent="2">
          <mxGeometry x="225" y="96" width="10" height="10" as="geometry" />
        </mxCell>
        <mxCell id="meA6yrem6NwH6y2sXX9Y-38" value="&lt;p style=&quot;margin:0px;margin-top:6px;text-align:center;&quot;&gt;&lt;b&gt;:TasksView&lt;/b&gt;&lt;/p&gt;" style="align=left;overflow=fill;html=1;dropTarget=0;fillColor=#A8DADC;strokeColor=#457B9D;fontColor=#1D3557;rounded=0;labelBackgroundColor=none;" vertex="1" parent="2">
          <mxGeometry x="50" y="181" width="180" height="58" as="geometry" />
        </mxCell>
        <mxCell id="meA6yrem6NwH6y2sXX9Y-39" value="" style="shape=component;jettyWidth=8;jettyHeight=4;fillColor=#A8DADC;strokeColor=#457B9D;fontColor=#1D3557;rounded=0;labelBackgroundColor=none;" vertex="1" parent="meA6yrem6NwH6y2sXX9Y-38">
          <mxGeometry x="1" width="20" height="20" relative="1" as="geometry">
            <mxPoint x="-24" y="4" as="offset" />
          </mxGeometry>
        </mxCell>
        <mxCell id="meA6yrem6NwH6y2sXX9Y-40" value="" style="whiteSpace=wrap;html=1;aspect=fixed;fillColor=#A8DADC;strokeColor=#457B9D;fontColor=#1D3557;rounded=0;labelBackgroundColor=none;" vertex="1" parent="2">
          <mxGeometry x="225" y="205" width="10" height="10" as="geometry" />
        </mxCell>
        <mxCell id="4" value="&lt;&lt;subsystem&gt;&gt;Database" style="swimlane;whiteSpace=wrap;fillColor=#A8DADC;strokeColor=#457B9D;fontColor=#1D3557;rounded=0;labelBackgroundColor=none;" parent="1" vertex="1">
          <mxGeometry x="1526.5" y="120" width="314" height="280" as="geometry" />
        </mxCell>
        <mxCell id="SUY-f_M2CVdVQqnCHsx--75" value="&lt;p style=&quot;margin:0px;margin-top:6px;text-align:center;&quot;&gt;&lt;b&gt;:User Table&lt;/b&gt;&lt;/p&gt;" style="align=left;overflow=fill;html=1;dropTarget=0;fillColor=#A8DADC;strokeColor=#457B9D;fontColor=#1D3557;rounded=0;labelBackgroundColor=none;" parent="4" vertex="1">
          <mxGeometry x="61" y="72" width="180" height="58" as="geometry" />
        </mxCell>
        <mxCell id="SUY-f_M2CVdVQqnCHsx--76" value="" style="shape=component;jettyWidth=8;jettyHeight=4;fillColor=#A8DADC;strokeColor=#457B9D;fontColor=#1D3557;rounded=0;labelBackgroundColor=none;" parent="SUY-f_M2CVdVQqnCHsx--75" vertex="1">
          <mxGeometry x="1" width="20" height="20" relative="1" as="geometry">
            <mxPoint x="-24" y="4" as="offset" />
          </mxGeometry>
        </mxCell>
        <mxCell id="meA6yrem6NwH6y2sXX9Y-29" value="&lt;p style=&quot;margin:0px;margin-top:6px;text-align:center;&quot;&gt;&lt;b&gt;:Tasks Data Table&lt;br&gt;&lt;/b&gt;&lt;/p&gt;&lt;pre style=&quot;margin:0px;margin-top:6px;text-align:center;&quot;&gt;&lt;b&gt;explicit table per user&lt;br&gt;&lt;/b&gt;&lt;/pre&gt;" style="align=left;overflow=fill;html=1;dropTarget=0;fillColor=#A8DADC;strokeColor=#457B9D;fontColor=#1D3557;rounded=0;labelBackgroundColor=none;" vertex="1" parent="4">
          <mxGeometry x="61" y="181" width="180" height="58" as="geometry" />
        </mxCell>
        <mxCell id="meA6yrem6NwH6y2sXX9Y-30" value="" style="shape=component;jettyWidth=8;jettyHeight=4;fillColor=#A8DADC;strokeColor=#457B9D;fontColor=#1D3557;rounded=0;labelBackgroundColor=none;" vertex="1" parent="meA6yrem6NwH6y2sXX9Y-29">
          <mxGeometry x="1" width="20" height="20" relative="1" as="geometry">
            <mxPoint x="-24" y="4" as="offset" />
          </mxGeometry>
        </mxCell>
        <mxCell id="meA6yrem6NwH6y2sXX9Y-52" value="" style="whiteSpace=wrap;html=1;aspect=fixed;fillColor=#A8DADC;strokeColor=#457B9D;fontColor=#1D3557;rounded=0;labelBackgroundColor=none;" vertex="1" parent="4">
          <mxGeometry x="56" y="205" width="10" height="10" as="geometry" />
        </mxCell>
        <mxCell id="SUY-f_M2CVdVQqnCHsx--45" value="" style="endArrow=none;html=1;rounded=0;entryX=0;entryY=0.5;entryDx=0;entryDy=0;startArrow=none;labelBackgroundColor=none;strokeColor=#457B9D;fontColor=default;" parent="1" source="SUY-f_M2CVdVQqnCHsx--46" target="SUY-f_M2CVdVQqnCHsx--41" edge="1">
          <mxGeometry width="50" height="50" relative="1" as="geometry">
            <mxPoint x="70" y="222" as="sourcePoint" />
            <mxPoint x="460" y="372" as="targetPoint" />
          </mxGeometry>
        </mxCell>
        <mxCell id="SUY-f_M2CVdVQqnCHsx--46" value="" style="whiteSpace=wrap;html=1;aspect=fixed;fillColor=#A8DADC;strokeColor=#457B9D;fontColor=#1D3557;rounded=0;labelBackgroundColor=none;" parent="1" vertex="1">
          <mxGeometry x="175" y="216" width="10" height="10" as="geometry" />
        </mxCell>
        <mxCell id="SUY-f_M2CVdVQqnCHsx--47" value="" style="endArrow=none;html=1;rounded=0;entryX=0;entryY=0.5;entryDx=0;entryDy=0;startArrow=none;labelBackgroundColor=none;strokeColor=#457B9D;fontColor=default;" parent="1" source="SUY-f_M2CVdVQqnCHsx--48" target="SUY-f_M2CVdVQqnCHsx--46" edge="1">
          <mxGeometry width="50" height="50" relative="1" as="geometry">
            <mxPoint x="70" y="222" as="sourcePoint" />
            <mxPoint x="180" y="221" as="targetPoint" />
          </mxGeometry>
        </mxCell>
        <mxCell id="SUY-f_M2CVdVQqnCHsx--48" value="" style="whiteSpace=wrap;html=1;aspect=fixed;fillColor=#A8DADC;strokeColor=#457B9D;fontColor=#1D3557;rounded=0;labelBackgroundColor=none;" parent="1" vertex="1">
          <mxGeometry x="125" y="216" width="10" height="10" as="geometry" />
        </mxCell>
        <mxCell id="SUY-f_M2CVdVQqnCHsx--49" value="" style="endArrow=none;html=1;rounded=0;entryX=0;entryY=0.5;entryDx=0;entryDy=0;labelBackgroundColor=none;strokeColor=#457B9D;fontColor=default;" parent="1" target="SUY-f_M2CVdVQqnCHsx--48" edge="1">
          <mxGeometry width="50" height="50" relative="1" as="geometry">
            <mxPoint x="70" y="221" as="sourcePoint" />
            <mxPoint x="170" y="221" as="targetPoint" />
          </mxGeometry>
        </mxCell>
        <mxCell id="SUY-f_M2CVdVQqnCHsx--51" value="" style="ellipse;whiteSpace=wrap;html=1;aspect=fixed;fillColor=#A8DADC;strokeColor=#457B9D;fontColor=#1D3557;rounded=0;labelBackgroundColor=none;" parent="1" vertex="1">
          <mxGeometry x="70" y="216" width="10" height="10" as="geometry" />
        </mxCell>
        <mxCell id="SUY-f_M2CVdVQqnCHsx--54" value="" style="endArrow=none;html=1;rounded=0;exitX=1;exitY=0.5;exitDx=0;exitDy=0;entryX=0;entryY=0.5;entryDx=0;entryDy=0;startArrow=none;labelBackgroundColor=none;strokeColor=#457B9D;fontColor=default;" parent="1" source="SUY-f_M2CVdVQqnCHsx--71" edge="1">
          <mxGeometry width="50" height="50" relative="1" as="geometry">
            <mxPoint x="1013.5" y="322" as="sourcePoint" />
            <mxPoint x="928.5" y="221" as="targetPoint" />
          </mxGeometry>
        </mxCell>
        <mxCell id="SUY-f_M2CVdVQqnCHsx--55" value="" style="whiteSpace=wrap;html=1;aspect=fixed;fillColor=#A8DADC;strokeColor=#457B9D;fontColor=#1D3557;rounded=0;labelBackgroundColor=none;" parent="1" vertex="1">
          <mxGeometry x="405" y="216" width="10" height="10" as="geometry" />
        </mxCell>
        <mxCell id="SUY-f_M2CVdVQqnCHsx--56" value="" style="endArrow=none;html=1;rounded=0;entryX=0;entryY=0.5;entryDx=0;entryDy=0;labelBackgroundColor=none;strokeColor=#457B9D;fontColor=default;exitX=1;exitY=0.5;exitDx=0;exitDy=0;" parent="1" source="meA6yrem6NwH6y2sXX9Y-17" target="SUY-f_M2CVdVQqnCHsx--55" edge="1">
          <mxGeometry width="50" height="50" relative="1" as="geometry">
            <mxPoint x="381" y="229" as="sourcePoint" />
            <mxPoint x="550" y="221.0000000000001" as="targetPoint" />
          </mxGeometry>
        </mxCell>
        <mxCell id="SUY-f_M2CVdVQqnCHsx--64" value="parse login&#xa;data" style="text;strokeColor=none;fillColor=none;align=left;verticalAlign=middle;spacingLeft=4;spacingRight=4;overflow=hidden;points=[[0,0.5],[1,0.5]];portConstraint=eastwest;rotatable=0;fontColor=#1D3557;rounded=0;labelBackgroundColor=none;" parent="1" vertex="1">
          <mxGeometry x="410" y="190" width="70" height="30" as="geometry" />
        </mxCell>
        <mxCell id="SUY-f_M2CVdVQqnCHsx--72" value="" style="endArrow=none;html=1;rounded=0;exitX=1;exitY=0.5;exitDx=0;exitDy=0;entryX=0;entryY=0.5;entryDx=0;entryDy=0;startArrow=none;labelBackgroundColor=none;strokeColor=#457B9D;fontColor=default;" parent="1" source="SUY-f_M2CVdVQqnCHsx--57" target="SUY-f_M2CVdVQqnCHsx--71" edge="1">
          <mxGeometry width="50" height="50" relative="1" as="geometry">
            <mxPoint x="883" y="221" as="sourcePoint" />
            <mxPoint x="923.5" y="221" as="targetPoint" />
          </mxGeometry>
        </mxCell>
        <mxCell id="SUY-f_M2CVdVQqnCHsx--77" value="" style="endArrow=none;html=1;rounded=0;entryX=0;entryY=0.5;entryDx=0;entryDy=0;exitX=1;exitY=0.5;exitDx=0;exitDy=0;startArrow=none;labelBackgroundColor=none;strokeColor=#457B9D;fontColor=default;" parent="1" source="SUY-f_M2CVdVQqnCHsx--81" target="SUY-f_M2CVdVQqnCHsx--75" edge="1">
          <mxGeometry width="50" height="50" relative="1" as="geometry">
            <mxPoint x="1298.5" y="221" as="sourcePoint" />
            <mxPoint x="1033.5" y="292" as="targetPoint" />
          </mxGeometry>
        </mxCell>
        <mxCell id="SUY-f_M2CVdVQqnCHsx--81" value="" style="whiteSpace=wrap;html=1;aspect=fixed;fillColor=#A8DADC;strokeColor=#457B9D;fontColor=#1D3557;rounded=0;labelBackgroundColor=none;" parent="1" vertex="1">
          <mxGeometry x="1414.5" y="216" width="10" height="10" as="geometry" />
        </mxCell>
        <mxCell id="SUY-f_M2CVdVQqnCHsx--82" value="" style="endArrow=none;html=1;rounded=0;entryX=0;entryY=0.5;entryDx=0;entryDy=0;exitX=1;exitY=0.5;exitDx=0;exitDy=0;startArrow=none;labelBackgroundColor=none;strokeColor=#457B9D;fontColor=default;" parent="1" source="meA6yrem6NwH6y2sXX9Y-6" target="SUY-f_M2CVdVQqnCHsx--81" edge="1">
          <mxGeometry width="50" height="50" relative="1" as="geometry">
            <mxPoint x="1103.5" y="221.0000000000001" as="sourcePoint" />
            <mxPoint x="1293.5" y="221.0000000000001" as="targetPoint" />
          </mxGeometry>
        </mxCell>
        <mxCell id="SUY-f_M2CVdVQqnCHsx--91" value="verify data" style="text;strokeColor=none;fillColor=none;align=right;verticalAlign=middle;spacingLeft=4;spacingRight=4;overflow=hidden;points=[[0,0.5],[1,0.5]];portConstraint=eastwest;rotatable=0;fontColor=#1D3557;rounded=0;labelBackgroundColor=none;" parent="1" vertex="1">
          <mxGeometry x="1419.5" y="190" width="70" height="30" as="geometry" />
        </mxCell>
        <mxCell id="SUY-f_M2CVdVQqnCHsx--96" value="&lt;h1&gt;Component Diagram for user verification (login process)&lt;/h1&gt;&lt;p&gt;This Component Diagram displays the user verification sub-process for the first sign-in. The user inputs his credentials inside a form, which is send to the User Management sub-system for verification using the User-Table inside the Postgres DB. After successfull verification, the API requests a JWT-Token from the JWT-library. This token is valid for a period of time, until it needs to be regenerated.&lt;/p&gt;" style="text;html=1;strokeColor=none;fillColor=none;spacing=5;spacingTop=-20;whiteSpace=wrap;overflow=hidden;rounded=0;fontColor=#1D3557;labelBackgroundColor=none;" parent="1" vertex="1">
          <mxGeometry x="20" y="16" width="1130" height="94" as="geometry" />
        </mxCell>
        <mxCell id="SUY-f_M2CVdVQqnCHsx--99" value="&lt;&lt;subsystem&gt;&gt; JWT Authenticator" style="swimlane;whiteSpace=wrap;fillColor=#A8DADC;strokeColor=#457B9D;fontColor=#1D3557;rounded=0;labelBackgroundColor=none;" parent="1" vertex="1">
          <mxGeometry x="1134.5" y="540" width="280" height="167" as="geometry" />
        </mxCell>
        <mxCell id="SUY-f_M2CVdVQqnCHsx--118" value="&lt;p style=&quot;margin:0px;margin-top:6px;text-align:center;&quot;&gt;&lt;b&gt;:Token Generator&lt;/b&gt;&lt;/p&gt;" style="align=left;overflow=fill;html=1;dropTarget=0;fillColor=#A8DADC;strokeColor=#457B9D;fontColor=#1D3557;rounded=0;labelBackgroundColor=none;" parent="SUY-f_M2CVdVQqnCHsx--99" vertex="1">
          <mxGeometry x="50" y="81" width="180" height="58" as="geometry" />
        </mxCell>
        <mxCell id="SUY-f_M2CVdVQqnCHsx--119" value="" style="shape=component;jettyWidth=8;jettyHeight=4;fillColor=#A8DADC;strokeColor=#457B9D;fontColor=#1D3557;rounded=0;labelBackgroundColor=none;" parent="SUY-f_M2CVdVQqnCHsx--118" vertex="1">
          <mxGeometry x="1" width="20" height="20" relative="1" as="geometry">
            <mxPoint x="-24" y="4" as="offset" />
          </mxGeometry>
        </mxCell>
        <mxCell id="meA6yrem6NwH6y2sXX9Y-4" value="" style="whiteSpace=wrap;html=1;aspect=fixed;fillColor=#A8DADC;strokeColor=#457B9D;fontColor=#1D3557;rounded=0;labelBackgroundColor=none;" vertex="1" parent="SUY-f_M2CVdVQqnCHsx--99">
          <mxGeometry x="135" y="23" width="10" height="10" as="geometry" />
        </mxCell>
        <mxCell id="meA6yrem6NwH6y2sXX9Y-5" value="" style="endArrow=none;html=1;rounded=0;startArrow=none;labelBackgroundColor=none;strokeColor=#457B9D;fontColor=default;exitX=0.5;exitY=1;exitDx=0;exitDy=0;entryX=0.5;entryY=0;entryDx=0;entryDy=0;" edge="1" parent="SUY-f_M2CVdVQqnCHsx--99" source="meA6yrem6NwH6y2sXX9Y-4" target="meA6yrem6NwH6y2sXX9Y-13">
          <mxGeometry width="50" height="50" relative="1" as="geometry">
            <mxPoint x="138.5" y="52" as="sourcePoint" />
            <mxPoint x="140.5" y="64" as="targetPoint" />
          </mxGeometry>
        </mxCell>
        <mxCell id="meA6yrem6NwH6y2sXX9Y-13" value="" style="whiteSpace=wrap;html=1;aspect=fixed;fillColor=#A8DADC;strokeColor=#457B9D;fontColor=#1D3557;rounded=0;labelBackgroundColor=none;" vertex="1" parent="SUY-f_M2CVdVQqnCHsx--99">
          <mxGeometry x="135" y="76" width="10" height="10" as="geometry" />
        </mxCell>
        <mxCell id="SUY-f_M2CVdVQqnCHsx--108" value="" style="whiteSpace=wrap;html=1;aspect=fixed;fillColor=#A8DADC;strokeColor=#457B9D;fontColor=#1D3557;rounded=0;labelBackgroundColor=none;" parent="1" vertex="1">
          <mxGeometry x="1269.5" y="534" width="10" height="10" as="geometry" />
        </mxCell>
        <mxCell id="SUY-f_M2CVdVQqnCHsx--115" value="" style="endArrow=none;html=1;rounded=0;entryX=0.5;entryY=0;entryDx=0;entryDy=0;startArrow=none;labelBackgroundColor=none;strokeColor=#457B9D;fontColor=default;" parent="1" source="SUY-f_M2CVdVQqnCHsx--116" target="SUY-f_M2CVdVQqnCHsx--108" edge="1">
          <mxGeometry width="50" height="50" relative="1" as="geometry">
            <mxPoint x="1260.93" y="514" as="sourcePoint" />
            <mxPoint x="1265.43" y="544" as="targetPoint" />
          </mxGeometry>
        </mxCell>
        <mxCell id="SUY-f_M2CVdVQqnCHsx--116" value="" style="ellipse;whiteSpace=wrap;html=1;aspect=fixed;fillColor=#A8DADC;strokeColor=#457B9D;fontColor=#1D3557;rounded=0;labelBackgroundColor=none;" parent="1" vertex="1">
          <mxGeometry x="1269.5" y="491" width="10" height="10" as="geometry" />
        </mxCell>
        <mxCell id="SUY-f_M2CVdVQqnCHsx--120" value="Request user-authentication token from JWT-Authenticator" style="text;html=1;strokeColor=none;fillColor=none;align=center;verticalAlign=middle;whiteSpace=wrap;rounded=0;fontColor=#1D3557;labelBackgroundColor=none;" parent="1" vertex="1">
          <mxGeometry x="1286" y="481" width="180" height="30" as="geometry" />
        </mxCell>
        <mxCell id="meA6yrem6NwH6y2sXX9Y-15" value="" style="endArrow=none;html=1;rounded=0;exitX=1;exitY=0.5;exitDx=0;exitDy=0;entryX=0;entryY=0.5;entryDx=0;entryDy=0;startArrow=none;labelBackgroundColor=none;strokeColor=#457B9D;fontColor=default;" edge="1" parent="1" source="SUY-f_M2CVdVQqnCHsx--55" target="SUY-f_M2CVdVQqnCHsx--57">
          <mxGeometry width="50" height="50" relative="1" as="geometry">
            <mxPoint x="519.5" y="231" as="sourcePoint" />
            <mxPoint x="560" y="231" as="targetPoint" />
          </mxGeometry>
        </mxCell>
        <mxCell id="meA6yrem6NwH6y2sXX9Y-6" value="&lt;p style=&quot;margin:0px;margin-top:6px;text-align:center;&quot;&gt;&lt;b&gt;:User Mngmnt&lt;br&gt;&lt;/b&gt;&lt;/p&gt;" style="align=left;overflow=fill;html=1;dropTarget=0;fillColor=#A8DADC;strokeColor=#457B9D;fontColor=#1D3557;rounded=0;labelBackgroundColor=none;" vertex="1" parent="1">
          <mxGeometry x="1184.5" y="192" width="180" height="58" as="geometry" />
        </mxCell>
        <mxCell id="meA6yrem6NwH6y2sXX9Y-7" value="" style="shape=component;jettyWidth=8;jettyHeight=4;fillColor=#A8DADC;strokeColor=#457B9D;fontColor=#1D3557;rounded=0;labelBackgroundColor=none;" vertex="1" parent="meA6yrem6NwH6y2sXX9Y-6">
          <mxGeometry x="1" width="20" height="20" relative="1" as="geometry">
            <mxPoint x="-24" y="4" as="offset" />
          </mxGeometry>
        </mxCell>
        <mxCell id="3" value="&lt;&lt;subsystem&gt;&gt;TuDu.Backend" style="swimlane;whiteSpace=wrap;fillColor=#A8DADC;strokeColor=#457B9D;fontColor=#1D3557;rounded=0;labelBackgroundColor=none;" parent="1" vertex="1">
          <mxGeometry x="878.5" y="121" width="542" height="340" as="geometry" />
        </mxCell>
        <mxCell id="SUY-f_M2CVdVQqnCHsx--85" value="" style="whiteSpace=wrap;html=1;aspect=fixed;fillColor=#A8DADC;strokeColor=#457B9D;fontColor=#1D3557;rounded=0;labelBackgroundColor=none;" parent="3" vertex="1">
          <mxGeometry x="481" y="95" width="10" height="10" as="geometry" />
        </mxCell>
        <mxCell id="meA6yrem6NwH6y2sXX9Y-31" style="edgeStyle=orthogonalEdgeStyle;rounded=0;orthogonalLoop=1;jettySize=auto;html=1;exitX=0.5;exitY=1;exitDx=0;exitDy=0;entryX=0.5;entryY=0;entryDx=0;entryDy=0;startArrow=none;startFill=0;endArrow=none;endFill=0;exitPerimeter=0;labelBackgroundColor=none;strokeColor=#457B9D;fontColor=default;" edge="1" parent="3" source="meA6yrem6NwH6y2sXX9Y-18" target="meA6yrem6NwH6y2sXX9Y-23">
          <mxGeometry relative="1" as="geometry" />
        </mxCell>
        <mxCell id="meA6yrem6NwH6y2sXX9Y-18" value="" style="whiteSpace=wrap;html=1;aspect=fixed;fillColor=#A8DADC;strokeColor=#457B9D;fontColor=#1D3557;rounded=0;labelBackgroundColor=none;" vertex="1" parent="3">
          <mxGeometry x="460" y="124" width="10" height="10" as="geometry" />
        </mxCell>
        <mxCell id="SUY-f_M2CVdVQqnCHsx--71" value="" style="whiteSpace=wrap;html=1;aspect=fixed;fillColor=#A8DADC;strokeColor=#457B9D;fontColor=#1D3557;rounded=0;labelBackgroundColor=none;" parent="3" vertex="1">
          <mxGeometry x="301" y="95" width="10" height="10" as="geometry" />
        </mxCell>
        <mxCell id="meA6yrem6NwH6y2sXX9Y-32" value="&lt;p style=&quot;margin:0px;margin-top:6px;text-align:center;&quot;&gt;&lt;b&gt;:Task Mngr&lt;br&gt;&lt;/b&gt;&lt;/p&gt;" style="align=left;overflow=fill;html=1;dropTarget=0;fillColor=#A8DADC;strokeColor=#457B9D;fontColor=#1D3557;rounded=0;labelBackgroundColor=none;" vertex="1" parent="3">
          <mxGeometry x="80" y="180" width="180" height="58" as="geometry" />
        </mxCell>
        <mxCell id="meA6yrem6NwH6y2sXX9Y-33" value="" style="shape=component;jettyWidth=8;jettyHeight=4;fillColor=#A8DADC;strokeColor=#457B9D;fontColor=#1D3557;rounded=0;labelBackgroundColor=none;" vertex="1" parent="meA6yrem6NwH6y2sXX9Y-32">
          <mxGeometry x="1" width="20" height="20" relative="1" as="geometry">
            <mxPoint x="-24" y="4" as="offset" />
          </mxGeometry>
        </mxCell>
        <mxCell id="meA6yrem6NwH6y2sXX9Y-35" style="edgeStyle=orthogonalEdgeStyle;rounded=0;orthogonalLoop=1;jettySize=auto;html=1;exitX=0.5;exitY=1;exitDx=0;exitDy=0;entryX=0.5;entryY=0;entryDx=0;entryDy=0;startArrow=none;startFill=0;endArrow=none;endFill=0;labelBackgroundColor=none;strokeColor=#457B9D;fontColor=default;" edge="1" parent="3" source="meA6yrem6NwH6y2sXX9Y-36" target="meA6yrem6NwH6y2sXX9Y-32">
          <mxGeometry relative="1" as="geometry" />
        </mxCell>
        <mxCell id="meA6yrem6NwH6y2sXX9Y-34" value="" style="whiteSpace=wrap;html=1;aspect=fixed;fillColor=#A8DADC;strokeColor=#457B9D;fontColor=#1D3557;rounded=0;labelBackgroundColor=none;" vertex="1" parent="3">
          <mxGeometry x="316" y="124" width="10" height="10" as="geometry" />
        </mxCell>
        <mxCell id="meA6yrem6NwH6y2sXX9Y-36" value="" style="whiteSpace=wrap;html=1;aspect=fixed;fillColor=#A8DADC;strokeColor=#457B9D;fontColor=#1D3557;rounded=0;labelBackgroundColor=none;" vertex="1" parent="3">
          <mxGeometry x="165" y="175" width="10" height="10" as="geometry" />
        </mxCell>
        <mxCell id="meA6yrem6NwH6y2sXX9Y-37" value="" style="edgeStyle=orthogonalEdgeStyle;rounded=0;orthogonalLoop=1;jettySize=auto;html=1;exitX=0.5;exitY=1;exitDx=0;exitDy=0;entryX=0.5;entryY=0;entryDx=0;entryDy=0;startArrow=none;startFill=0;endArrow=none;endFill=0;labelBackgroundColor=none;strokeColor=#457B9D;fontColor=default;" edge="1" parent="3" source="meA6yrem6NwH6y2sXX9Y-34" target="meA6yrem6NwH6y2sXX9Y-36">
          <mxGeometry relative="1" as="geometry">
            <mxPoint x="826" y="255" as="sourcePoint" />
            <mxPoint x="675" y="306.5" as="targetPoint" />
          </mxGeometry>
        </mxCell>
        <mxCell id="meA6yrem6NwH6y2sXX9Y-43" value="" style="whiteSpace=wrap;html=1;aspect=fixed;fillColor=#A8DADC;strokeColor=#457B9D;fontColor=#1D3557;rounded=0;labelBackgroundColor=none;" vertex="1" parent="3">
          <mxGeometry x="75" y="204" width="10" height="10" as="geometry" />
        </mxCell>
        <mxCell id="meA6yrem6NwH6y2sXX9Y-42" value="" style="whiteSpace=wrap;html=1;aspect=fixed;fillColor=#A8DADC;strokeColor=#457B9D;fontColor=#1D3557;rounded=0;labelBackgroundColor=none;" vertex="1" parent="3">
          <mxGeometry x="-5.5" y="204" width="10" height="10" as="geometry" />
        </mxCell>
        <mxCell id="meA6yrem6NwH6y2sXX9Y-44" style="edgeStyle=orthogonalEdgeStyle;rounded=0;orthogonalLoop=1;jettySize=auto;html=1;exitX=0;exitY=0.5;exitDx=0;exitDy=0;entryX=1;entryY=0.5;entryDx=0;entryDy=0;startArrow=none;startFill=0;endArrow=none;endFill=0;labelBackgroundColor=none;strokeColor=#457B9D;fontColor=default;" edge="1" parent="3" source="meA6yrem6NwH6y2sXX9Y-43" target="meA6yrem6NwH6y2sXX9Y-42">
          <mxGeometry relative="1" as="geometry" />
        </mxCell>
        <mxCell id="meA6yrem6NwH6y2sXX9Y-47" value="" style="whiteSpace=wrap;html=1;aspect=fixed;fillColor=#A8DADC;strokeColor=#457B9D;fontColor=#1D3557;rounded=0;labelBackgroundColor=none;" vertex="1" parent="3">
          <mxGeometry x="255" y="204" width="10" height="10" as="geometry" />
        </mxCell>
        <mxCell id="meA6yrem6NwH6y2sXX9Y-49" style="edgeStyle=orthogonalEdgeStyle;rounded=0;orthogonalLoop=1;jettySize=auto;html=1;exitX=0;exitY=0.5;exitDx=0;exitDy=0;entryX=1;entryY=0.5;entryDx=0;entryDy=0;startArrow=none;startFill=0;endArrow=none;endFill=0;labelBackgroundColor=none;strokeColor=#457B9D;fontColor=default;" edge="1" parent="3" source="meA6yrem6NwH6y2sXX9Y-48" target="meA6yrem6NwH6y2sXX9Y-47">
          <mxGeometry relative="1" as="geometry" />
        </mxCell>
        <mxCell id="meA6yrem6NwH6y2sXX9Y-48" value="" style="whiteSpace=wrap;html=1;aspect=fixed;fillColor=#A8DADC;strokeColor=#457B9D;fontColor=#1D3557;rounded=0;labelBackgroundColor=none;" vertex="1" parent="3">
          <mxGeometry x="537" y="204" width="10" height="10" as="geometry" />
        </mxCell>
        <mxCell id="meA6yrem6NwH6y2sXX9Y-22" value="" style="group;labelBackgroundColor=none;fontColor=#1D3557;rounded=0;" vertex="1" connectable="0" parent="3">
          <mxGeometry x="306.5" y="238" width="180" height="62" as="geometry" />
        </mxCell>
        <mxCell id="meA6yrem6NwH6y2sXX9Y-24" value="" style="group;labelBackgroundColor=none;fontColor=#1D3557;rounded=0;" vertex="1" connectable="0" parent="meA6yrem6NwH6y2sXX9Y-22">
          <mxGeometry y="-7" width="180.00000000000003" height="65" as="geometry" />
        </mxCell>
        <mxCell id="meA6yrem6NwH6y2sXX9Y-10" value="&lt;p style=&quot;margin:0px;margin-top:6px;text-align:center;&quot;&gt;&lt;b&gt;:User Authentication&lt;br&gt;&lt;/b&gt;&lt;/p&gt;" style="align=left;overflow=fill;html=1;dropTarget=0;fillColor=#A8DADC;strokeColor=#457B9D;fontColor=#1D3557;rounded=0;labelBackgroundColor=none;" vertex="1" parent="meA6yrem6NwH6y2sXX9Y-24">
          <mxGeometry y="7" width="180.00000000000003" height="58" as="geometry" />
        </mxCell>
        <mxCell id="meA6yrem6NwH6y2sXX9Y-11" value="" style="shape=component;jettyWidth=8;jettyHeight=4;fillColor=#A8DADC;strokeColor=#457B9D;fontColor=#1D3557;rounded=0;labelBackgroundColor=none;" vertex="1" parent="meA6yrem6NwH6y2sXX9Y-10">
          <mxGeometry x="1" width="20" height="20" relative="1" as="geometry">
            <mxPoint x="-24" y="4" as="offset" />
          </mxGeometry>
        </mxCell>
        <mxCell id="meA6yrem6NwH6y2sXX9Y-23" value="" style="whiteSpace=wrap;html=1;aspect=fixed;fillColor=#A8DADC;strokeColor=#457B9D;fontColor=#1D3557;rounded=0;labelBackgroundColor=none;" vertex="1" parent="meA6yrem6NwH6y2sXX9Y-24">
          <mxGeometry x="85.00000000000001" width="9.574468085106384" height="9.574468085106384" as="geometry" />
        </mxCell>
        <mxCell id="SUY-f_M2CVdVQqnCHsx--106" value="" style="whiteSpace=wrap;html=1;aspect=fixed;fillColor=#A8DADC;strokeColor=#457B9D;fontColor=#1D3557;rounded=0;direction=south;labelBackgroundColor=none;" parent="meA6yrem6NwH6y2sXX9Y-22" vertex="1">
          <mxGeometry x="85.00000000000001" y="52" width="9.574468085106384" height="9.574468085106384" as="geometry" />
        </mxCell>
        <mxCell id="meA6yrem6NwH6y2sXX9Y-46" style="edgeStyle=orthogonalEdgeStyle;rounded=0;orthogonalLoop=1;jettySize=auto;html=1;exitX=0;exitY=0.5;exitDx=0;exitDy=0;entryX=1;entryY=0.5;entryDx=0;entryDy=0;startArrow=none;startFill=0;endArrow=none;endFill=0;labelBackgroundColor=none;strokeColor=#457B9D;fontColor=default;" edge="1" parent="1" source="meA6yrem6NwH6y2sXX9Y-41" target="meA6yrem6NwH6y2sXX9Y-40">
          <mxGeometry relative="1" as="geometry" />
        </mxCell>
        <mxCell id="meA6yrem6NwH6y2sXX9Y-41" value="" style="whiteSpace=wrap;html=1;aspect=fixed;fillColor=#A8DADC;strokeColor=#457B9D;fontColor=#1D3557;rounded=0;labelBackgroundColor=none;" vertex="1" parent="1">
          <mxGeometry x="405" y="325" width="10" height="10" as="geometry" />
        </mxCell>
        <mxCell id="meA6yrem6NwH6y2sXX9Y-45" style="edgeStyle=orthogonalEdgeStyle;rounded=0;orthogonalLoop=1;jettySize=auto;html=1;exitX=0;exitY=0.5;exitDx=0;exitDy=0;entryX=1;entryY=0.5;entryDx=0;entryDy=0;startArrow=none;startFill=0;endArrow=none;endFill=0;labelBackgroundColor=none;strokeColor=#457B9D;fontColor=default;" edge="1" parent="1" source="meA6yrem6NwH6y2sXX9Y-64" target="meA6yrem6NwH6y2sXX9Y-41">
          <mxGeometry relative="1" as="geometry" />
        </mxCell>
        <mxCell id="meA6yrem6NwH6y2sXX9Y-53" style="edgeStyle=orthogonalEdgeStyle;rounded=0;orthogonalLoop=1;jettySize=auto;html=1;exitX=1;exitY=0.5;exitDx=0;exitDy=0;entryX=0;entryY=0.5;entryDx=0;entryDy=0;startArrow=none;startFill=0;endArrow=none;endFill=0;labelBackgroundColor=none;strokeColor=#457B9D;fontColor=default;" edge="1" parent="1" source="meA6yrem6NwH6y2sXX9Y-50" target="meA6yrem6NwH6y2sXX9Y-52">
          <mxGeometry relative="1" as="geometry" />
        </mxCell>
        <mxCell id="meA6yrem6NwH6y2sXX9Y-50" value="" style="whiteSpace=wrap;html=1;aspect=fixed;fillColor=#A8DADC;strokeColor=#457B9D;fontColor=#1D3557;rounded=0;labelBackgroundColor=none;" vertex="1" parent="1">
          <mxGeometry x="1521.5" y="325" width="10" height="10" as="geometry" />
        </mxCell>
        <mxCell id="meA6yrem6NwH6y2sXX9Y-51" style="edgeStyle=orthogonalEdgeStyle;rounded=0;orthogonalLoop=1;jettySize=auto;html=1;exitX=1;exitY=0.5;exitDx=0;exitDy=0;entryX=0;entryY=0.5;entryDx=0;entryDy=0;startArrow=none;startFill=0;endArrow=none;endFill=0;labelBackgroundColor=none;strokeColor=#457B9D;fontColor=default;" edge="1" parent="1" source="meA6yrem6NwH6y2sXX9Y-48" target="meA6yrem6NwH6y2sXX9Y-50">
          <mxGeometry relative="1" as="geometry" />
        </mxCell>
        <mxCell id="meA6yrem6NwH6y2sXX9Y-55" value="User" style="shape=umlActor;verticalLabelPosition=bottom;verticalAlign=top;html=1;labelBackgroundColor=none;fillColor=#A8DADC;strokeColor=#457B9D;fontColor=#1D3557;rounded=0;" vertex="1" parent="1">
          <mxGeometry x="34" y="192" width="30" height="60" as="geometry" />
        </mxCell>
        <mxCell id="meA6yrem6NwH6y2sXX9Y-56" value="&lt;&lt;subsystem&gt;&gt; TuDu.API" style="swimlane;whiteSpace=wrap;fillColor=#A8DADC;strokeColor=#457B9D;fontColor=#1D3557;rounded=0;labelBackgroundColor=none;" vertex="1" parent="1">
          <mxGeometry x="498" y="120" width="280" height="279" as="geometry" />
        </mxCell>
        <mxCell id="meA6yrem6NwH6y2sXX9Y-57" value="&lt;p style=&quot;margin:0px;margin-top:6px;text-align:center;&quot;&gt;&lt;b&gt;:AuthEndpoint&lt;/b&gt;&lt;/p&gt;" style="align=left;overflow=fill;html=1;dropTarget=0;fillColor=#A8DADC;strokeColor=#457B9D;fontColor=#1D3557;rounded=0;labelBackgroundColor=none;" vertex="1" parent="meA6yrem6NwH6y2sXX9Y-56">
          <mxGeometry x="50" y="72" width="180" height="58" as="geometry" />
        </mxCell>
        <mxCell id="meA6yrem6NwH6y2sXX9Y-58" value="" style="shape=component;jettyWidth=8;jettyHeight=4;fillColor=#A8DADC;strokeColor=#457B9D;fontColor=#1D3557;rounded=0;labelBackgroundColor=none;" vertex="1" parent="meA6yrem6NwH6y2sXX9Y-57">
          <mxGeometry x="1" width="20" height="20" relative="1" as="geometry">
            <mxPoint x="-24" y="4" as="offset" />
          </mxGeometry>
        </mxCell>
        <mxCell id="meA6yrem6NwH6y2sXX9Y-59" value="" style="whiteSpace=wrap;html=1;aspect=fixed;fillColor=#A8DADC;strokeColor=#457B9D;fontColor=#1D3557;rounded=0;labelBackgroundColor=none;" vertex="1" parent="meA6yrem6NwH6y2sXX9Y-56">
          <mxGeometry x="225" y="96" width="10" height="10" as="geometry" />
        </mxCell>
        <mxCell id="meA6yrem6NwH6y2sXX9Y-60" value="&lt;p style=&quot;margin:0px;margin-top:6px;text-align:center;&quot;&gt;&lt;b&gt;:TasksProvider&lt;/b&gt;&lt;/p&gt;" style="align=left;overflow=fill;html=1;dropTarget=0;fillColor=#A8DADC;strokeColor=#457B9D;fontColor=#1D3557;rounded=0;labelBackgroundColor=none;" vertex="1" parent="meA6yrem6NwH6y2sXX9Y-56">
          <mxGeometry x="50" y="181" width="180" height="58" as="geometry" />
        </mxCell>
        <mxCell id="meA6yrem6NwH6y2sXX9Y-61" value="" style="shape=component;jettyWidth=8;jettyHeight=4;fillColor=#A8DADC;strokeColor=#457B9D;fontColor=#1D3557;rounded=0;labelBackgroundColor=none;" vertex="1" parent="meA6yrem6NwH6y2sXX9Y-60">
          <mxGeometry x="1" width="20" height="20" relative="1" as="geometry">
            <mxPoint x="-24" y="4" as="offset" />
          </mxGeometry>
        </mxCell>
        <mxCell id="meA6yrem6NwH6y2sXX9Y-62" value="" style="whiteSpace=wrap;html=1;aspect=fixed;fillColor=#A8DADC;strokeColor=#457B9D;fontColor=#1D3557;rounded=0;labelBackgroundColor=none;" vertex="1" parent="meA6yrem6NwH6y2sXX9Y-56">
          <mxGeometry x="225" y="205" width="10" height="10" as="geometry" />
        </mxCell>
        <mxCell id="meA6yrem6NwH6y2sXX9Y-66" value="" style="whiteSpace=wrap;html=1;aspect=fixed;fillColor=#A8DADC;strokeColor=#457B9D;fontColor=#1D3557;rounded=0;labelBackgroundColor=none;" vertex="1" parent="meA6yrem6NwH6y2sXX9Y-56">
          <mxGeometry x="45" y="205" width="10" height="10" as="geometry" />
        </mxCell>
        <mxCell id="meA6yrem6NwH6y2sXX9Y-63" value="" style="whiteSpace=wrap;html=1;aspect=fixed;fillColor=#A8DADC;strokeColor=#457B9D;fontColor=#1D3557;rounded=0;labelBackgroundColor=none;" vertex="1" parent="1">
          <mxGeometry x="493" y="216" width="10" height="10" as="geometry" />
        </mxCell>
        <mxCell id="meA6yrem6NwH6y2sXX9Y-67" style="edgeStyle=orthogonalEdgeStyle;rounded=0;orthogonalLoop=1;jettySize=auto;html=1;exitX=1;exitY=0.5;exitDx=0;exitDy=0;entryX=0;entryY=0.5;entryDx=0;entryDy=0;startArrow=none;startFill=0;endArrow=none;endFill=0;labelBackgroundColor=none;strokeColor=#457B9D;fontColor=default;" edge="1" parent="1" source="meA6yrem6NwH6y2sXX9Y-64" target="meA6yrem6NwH6y2sXX9Y-66">
          <mxGeometry relative="1" as="geometry" />
        </mxCell>
        <mxCell id="meA6yrem6NwH6y2sXX9Y-64" value="" style="whiteSpace=wrap;html=1;aspect=fixed;fillColor=#A8DADC;strokeColor=#457B9D;fontColor=#1D3557;rounded=0;labelBackgroundColor=none;" vertex="1" parent="1">
          <mxGeometry x="493" y="325" width="10" height="10" as="geometry" />
        </mxCell>
        <mxCell id="meA6yrem6NwH6y2sXX9Y-70" style="edgeStyle=orthogonalEdgeStyle;rounded=0;orthogonalLoop=1;jettySize=auto;html=1;exitX=1;exitY=0.5;exitDx=0;exitDy=0;entryX=0;entryY=0.5;entryDx=0;entryDy=0;startArrow=none;startFill=0;endArrow=none;endFill=0;labelBackgroundColor=none;strokeColor=#457B9D;fontColor=default;" edge="1" parent="1" source="meA6yrem6NwH6y2sXX9Y-68" target="meA6yrem6NwH6y2sXX9Y-42">
          <mxGeometry relative="1" as="geometry" />
        </mxCell>
        <mxCell id="meA6yrem6NwH6y2sXX9Y-68" value="" style="whiteSpace=wrap;html=1;aspect=fixed;fillColor=#A8DADC;strokeColor=#457B9D;fontColor=#1D3557;rounded=0;labelBackgroundColor=none;" vertex="1" parent="1">
          <mxGeometry x="773" y="325" width="10" height="10" as="geometry" />
        </mxCell>
        <mxCell id="meA6yrem6NwH6y2sXX9Y-69" style="edgeStyle=orthogonalEdgeStyle;rounded=0;orthogonalLoop=1;jettySize=auto;html=1;exitX=1;exitY=0.5;exitDx=0;exitDy=0;entryX=0;entryY=0.5;entryDx=0;entryDy=0;startArrow=none;startFill=0;endArrow=none;endFill=0;labelBackgroundColor=none;strokeColor=#457B9D;fontColor=default;" edge="1" parent="1" source="meA6yrem6NwH6y2sXX9Y-62" target="meA6yrem6NwH6y2sXX9Y-68">
          <mxGeometry relative="1" as="geometry" />
        </mxCell>
        <mxCell id="meA6yrem6NwH6y2sXX9Y-71" value="" style="whiteSpace=wrap;html=1;aspect=fixed;fillColor=#A8DADC;strokeColor=#457B9D;fontColor=#1D3557;rounded=0;labelBackgroundColor=none;" vertex="1" parent="1">
          <mxGeometry x="773" y="216" width="10" height="10" as="geometry" />
        </mxCell>
        <mxCell id="SUY-f_M2CVdVQqnCHsx--57" value="" style="whiteSpace=wrap;html=1;aspect=fixed;fillColor=#A8DADC;strokeColor=#457B9D;fontColor=#1D3557;rounded=0;labelBackgroundColor=none;" parent="1" vertex="1">
          <mxGeometry x="873" y="216" width="10" height="10" as="geometry" />
        </mxCell>
        <mxCell id="meA6yrem6NwH6y2sXX9Y-78" value="" style="rounded=0;orthogonalLoop=1;jettySize=auto;html=1;endArrow=halfCircle;endFill=0;endSize=6;strokeWidth=1;exitX=1;exitY=0.5;exitDx=0;exitDy=0;labelBackgroundColor=none;strokeColor=#457B9D;fontColor=default;" edge="1" target="SUY-f_M2CVdVQqnCHsx--116" parent="1" source="meA6yrem6NwH6y2sXX9Y-72">
          <mxGeometry relative="1" as="geometry">
            <mxPoint x="1349" y="590" as="sourcePoint" />
            <mxPoint x="1276" y="483" as="targetPoint" />
            <Array as="points" />
          </mxGeometry>
        </mxCell>
        <mxCell id="meA6yrem6NwH6y2sXX9Y-72" value="" style="whiteSpace=wrap;html=1;aspect=fixed;fillColor=#A8DADC;strokeColor=#457B9D;fontColor=#1D3557;rounded=0;direction=south;labelBackgroundColor=none;" vertex="1" parent="1">
          <mxGeometry x="1270.21" y="457" width="9.574468085106384" height="9.574468085106384" as="geometry" />
        </mxCell>
        <mxCell id="meA6yrem6NwH6y2sXX9Y-73" style="edgeStyle=orthogonalEdgeStyle;rounded=0;orthogonalLoop=1;jettySize=auto;html=1;exitX=1;exitY=0.5;exitDx=0;exitDy=0;entryX=0;entryY=0.5;entryDx=0;entryDy=0;startArrow=none;startFill=0;endArrow=none;endFill=0;labelBackgroundColor=none;strokeColor=#457B9D;fontColor=default;" edge="1" parent="1" source="SUY-f_M2CVdVQqnCHsx--106" target="meA6yrem6NwH6y2sXX9Y-72">
          <mxGeometry relative="1" as="geometry" />
        </mxCell>
      </root>
    </mxGraphModel>
  </diagram>
</mxfile>
